<svg width="1440" height="493" viewBox="0 0 1440 493" fill="none" xmlns="http://www.w3.org/2000/svg">
<path d="M0 147.9H26.7C53.3 147.9 107 147.9 160 131.415C213.3 115.547 267 81.6531 320 115.085C373.3 147.9 427 246.5 480 262.985C533.3 278.853 587 214.147 640 164.385C693.3 115.547 747 81.6531 800 73.95C853.3 66.2469 907 81.6531 960 131.415C1013.3 180.253 1067 263.447 1120 279.315C1173.3 295.8 1227 246.5 1280 197.2C1333.3 147.9 1387 98.6 1413 73.95L1440 49.3V493H1413.3C1386.7 493 1333 493 1280 493C1226.7 493 1173 493 1120 493C1066.7 493 1013 493 960 493C906.7 493 853 493 800 493C746.7 493 693 493 640 493C586.7 493 533 493 480 493C426.7 493 373 493 320 493C266.7 493 213 493 160 493C106.7 493 53 493 27 493H0V147.9Z" fill="#6EAED1"/>
</svg>
