<svg width="39" height="45" viewBox="0 0 39 45" fill="none" xmlns="http://www.w3.org/2000/svg">
<g clip-path="url(#clip0_8_34)">
<path d="M19.5087 12.3926C13.9721 12.3926 9.50625 16.9014 9.50625 22.4912C9.50625 28.0811 13.9721 32.5898 19.5087 32.5898C25.0453 32.5898 29.5112 28.0811 29.5112 22.4912C29.5112 16.9014 25.0453 12.3926 19.5087 12.3926ZM19.5087 29.0566C15.9308 29.0566 13.0058 26.1123 13.0058 22.4912C13.0058 18.8701 15.9221 15.9258 19.5087 15.9258C23.0953 15.9258 26.0116 18.8701 26.0116 22.4912C26.0116 26.1123 23.0866 29.0566 19.5087 29.0566ZM32.2533 11.9795C32.2533 13.2891 31.2087 14.335 29.9203 14.335C28.6232 14.335 27.5873 13.2803 27.5873 11.9795C27.5873 10.6787 28.6319 9.62402 29.9203 9.62402C31.2087 9.62402 32.2533 10.6787 32.2533 11.9795ZM38.8781 14.3701C38.7301 11.2148 38.0163 8.41992 35.7268 6.11719C33.446 3.81445 30.6777 3.09375 27.5525 2.93555C24.3315 2.75098 14.6772 2.75098 11.4562 2.93555C8.33973 3.08496 5.57143 3.80566 3.28192 6.1084C0.992409 8.41113 0.287275 11.2061 0.130579 14.3613C-0.0522339 17.6133 -0.0522339 27.3603 0.130579 30.6123C0.27857 33.7676 0.992409 36.5625 3.28192 38.8652C5.57143 41.168 8.33103 41.8887 11.4562 42.0469C14.6772 42.2314 24.3315 42.2314 27.5525 42.0469C30.6777 41.8975 33.446 41.1768 35.7268 38.8652C38.0076 36.5625 38.7214 33.7676 38.8781 30.6123C39.0609 27.3603 39.0609 17.6221 38.8781 14.3701ZM34.717 34.1016C34.0379 35.8242 32.7234 37.1514 31.0085 37.8457C28.4404 38.874 22.3466 38.6367 19.5087 38.6367C16.6708 38.6367 10.5683 38.8652 8.00893 37.8457C6.30268 37.1602 4.98817 35.833 4.30044 34.1016C3.28192 31.5088 3.51696 25.3564 3.51696 22.4912C3.51696 19.626 3.29062 13.4648 4.30044 10.8809C4.97946 9.1582 6.29397 7.83105 8.00893 7.13672C10.577 6.1084 16.6708 6.3457 19.5087 6.3457C22.3466 6.3457 28.4491 6.11719 31.0085 7.13672C32.7147 7.82227 34.0292 9.14941 34.717 10.8809C35.7355 13.4736 35.5004 19.626 35.5004 22.4912C35.5004 25.3564 35.7355 31.5176 34.717 34.1016Z" fill="white"/>
</g>
<defs>
<clipPath id="clip0_8_34">
<rect width="39" height="45" fill="white"/>
</clipPath>
</defs>
</svg>
