<svg width="39" height="45" viewBox="0 0 39 45" fill="none" xmlns="http://www.w3.org/2000/svg">
<path d="M34.9911 13.3344C35.0158 13.7341 35.0158 14.1339 35.0158 14.5337C35.0158 26.7259 26.9734 40.7741 12.2741 40.7741C7.74554 40.7741 3.53872 39.2607 0 36.6339C0.643424 36.7196 1.26202 36.7481 1.9302 36.7481C5.66681 36.7481 9.10658 35.2919 11.8534 32.8078C8.33945 32.7221 5.39464 30.0667 4.38003 26.4118C4.875 26.4974 5.36989 26.5546 5.88961 26.5546C6.60722 26.5546 7.32492 26.4403 7.99302 26.2405C4.3306 25.3839 1.58369 21.672 1.58369 17.1891V17.0749C2.64773 17.7602 3.88515 18.1885 5.1966 18.2456C3.04368 16.5894 1.6332 13.7627 1.6332 10.5647C1.6332 8.85155 2.02907 7.28112 2.722 5.91055C6.65666 11.507 12.571 15.1617 19.2029 15.5616C19.0792 14.8763 19.005 14.1625 19.005 13.4487C19.005 8.36613 22.5684 4.22595 26.998 4.22595C29.2994 4.22595 31.378 5.33953 32.8381 7.13838C34.6445 6.73866 36.3767 5.96768 37.911 4.91124C37.3171 7.05278 36.055 8.85164 34.3971 9.99369C36.0056 9.79391 37.5646 9.27984 38.9998 8.56608C37.9112 10.3934 36.5501 12.0209 34.9911 13.3344Z" fill="white"/>
</svg>
